solid CATIA STL
  facet normal  0.000000e+000  0.000000e+000 -9.999999e-001
    outer loop
      vertex -2.831559e+000 -2.057248e+000  6.000000e+001
      vertex -3.500000e+000  4.286264e-016  6.000000e+001
      vertex -2.000000e+000  2.449294e-016  6.000000e+001
    endloop
  endfacet
  facet normal  0.000000e+000  -0.000000e+000 -1.000000e+000
    outer loop
      vertex -2.831559e+000 -2.057248e+000  6.000000e+001
      vertex -2.000000e+000  2.449294e-016  6.000000e+001
      vertex -1.414214e+000 -1.414214e+000  6.000000e+001
    endloop
  endfacet
  facet normal  0.000000e+000  -0.000000e+000 -9.999999e-001
    outer loop
      vertex -2.831559e+000 -2.057248e+000  6.000000e+001
      vertex -1.414214e+000 -1.414214e+000  6.000000e+001
      vertex -3.673940e-016 -2.000000e+000  6.000000e+001
    endloop
  endfacet
  facet normal  0.000000e+000  0.000000e+000 -1.000000e+000
    outer loop
      vertex -2.831559e+000 -2.057248e+000  6.000000e+001
      vertex -3.673940e-016 -2.000000e+000  6.000000e+001
      vertex -1.081560e+000 -3.328698e+000  6.000000e+001
    endloop
  endfacet
  facet normal  0.000000e+000  0.000000e+000 -9.999999e-001
    outer loop
      vertex  1.414214e+000 -1.414214e+000  6.000000e+001
      vertex  2.831559e+000 -2.057248e+000  6.000000e+001
      vertex -3.673940e-016 -2.000000e+000  6.000000e+001
    endloop
  endfacet
  facet normal  0.000000e+000  0.000000e+000 -1.000000e+000
    outer loop
      vertex -3.673940e-016 -2.000000e+000  6.000000e+001
      vertex  2.831559e+000 -2.057248e+000  6.000000e+001
      vertex  1.081560e+000 -3.328698e+000  6.000000e+001
    endloop
  endfacet
  facet normal  0.000000e+000  0.000000e+000 -1.000000e+000
    outer loop
      vertex -3.673940e-016 -2.000000e+000  6.000000e+001
      vertex  1.081560e+000 -3.328698e+000  6.000000e+001
      vertex -1.081560e+000 -3.328698e+000  6.000000e+001
    endloop
  endfacet
  facet normal  0.000000e+000  0.000000e+000 -9.999999e-001
    outer loop
      vertex -1.414214e+000  1.414214e+000  6.000000e+001
      vertex -2.831559e+000  2.057248e+000  6.000000e+001
      vertex  1.224647e-016  2.000000e+000  6.000000e+001
    endloop
  endfacet
  facet normal  0.000000e+000  0.000000e+000 -1.000000e+000
    outer loop
      vertex  1.224647e-016  2.000000e+000  6.000000e+001
      vertex -2.831559e+000  2.057248e+000  6.000000e+001
      vertex -1.081560e+000  3.328698e+000  6.000000e+001
    endloop
  endfacet
  facet normal  0.000000e+000  0.000000e+000 -1.000000e+000
    outer loop
      vertex  1.224647e-016  2.000000e+000  6.000000e+001
      vertex -1.081560e+000  3.328698e+000  6.000000e+001
      vertex  1.081560e+000  3.328698e+000  6.000000e+001
    endloop
  endfacet
  facet normal  0.000000e+000  0.000000e+000 -1.000000e+000
    outer loop
      vertex -2.000000e+000  2.449294e-016  6.000000e+001
      vertex -3.500000e+000  4.286264e-016  6.000000e+001
      vertex -1.414214e+000  1.414214e+000  6.000000e+001
    endloop
  endfacet
  facet normal  -0.000000e+000  0.000000e+000 -1.000000e+000
    outer loop
      vertex -1.414214e+000  1.414214e+000  6.000000e+001
      vertex -3.500000e+000  4.286264e-016  6.000000e+001
      vertex -2.831559e+000  2.057248e+000  6.000000e+001
    endloop
  endfacet
  facet normal  0.000000e+000  0.000000e+000 -1.000000e+000
    outer loop
      vertex  2.831559e+000  2.057248e+000  6.000000e+001
      vertex  1.224647e-016  2.000000e+000  6.000000e+001
      vertex  1.081560e+000  3.328698e+000  6.000000e+001
    endloop
  endfacet
  facet normal  0.000000e+000  0.000000e+000 -9.999999e-001
    outer loop
      vertex  1.224647e-016  2.000000e+000  6.000000e+001
      vertex  2.831559e+000  2.057248e+000  6.000000e+001
      vertex  1.414214e+000  1.414214e+000  6.000000e+001
    endloop
  endfacet
  facet normal  0.000000e+000  0.000000e+000 -1.000000e+000
    outer loop
      vertex  1.414214e+000  1.414214e+000  6.000000e+001
      vertex  2.831559e+000  2.057248e+000  6.000000e+001
      vertex  3.500000e+000  0.000000e+000  6.000000e+001
    endloop
  endfacet
  facet normal  0.000000e+000  0.000000e+000 -1.000000e+000
    outer loop
      vertex  1.414214e+000  1.414214e+000  6.000000e+001
      vertex  3.500000e+000  0.000000e+000  6.000000e+001
      vertex  2.000000e+000  0.000000e+000  6.000000e+001
    endloop
  endfacet
  facet normal  0.000000e+000  0.000000e+000 -9.999999e-001
    outer loop
      vertex  2.000000e+000  0.000000e+000  6.000000e+001
      vertex  3.500000e+000  0.000000e+000  6.000000e+001
      vertex  2.831559e+000 -2.057248e+000  6.000000e+001
    endloop
  endfacet
  facet normal  0.000000e+000  0.000000e+000 -1.000000e+000
    outer loop
      vertex  2.000000e+000  0.000000e+000  6.000000e+001
      vertex  2.831559e+000 -2.057248e+000  6.000000e+001
      vertex  1.414214e+000 -1.414214e+000  6.000000e+001
    endloop
  endfacet
  facet normal  9.238795e-001 -3.826834e-001  0.000000e+000
    outer loop
      vertex  2.000000e+000  0.000000e+000  0.000000e+000
      vertex  2.000000e+000  0.000000e+000  6.000000e+001
      vertex  1.414214e+000 -1.414214e+000  0.000000e+000
    endloop
  endfacet
  facet normal  9.238795e-001 -3.826834e-001  0.000000e+000
    outer loop
      vertex  1.414214e+000 -1.414214e+000  0.000000e+000
      vertex  2.000000e+000  0.000000e+000  6.000000e+001
      vertex  1.414214e+000 -1.414214e+000  6.000000e+001
    endloop
  endfacet
  facet normal  3.826834e-001 -9.238795e-001  0.000000e+000
    outer loop
      vertex  1.414214e+000 -1.414214e+000  0.000000e+000
      vertex  1.414214e+000 -1.414214e+000  6.000000e+001
      vertex -3.673940e-016 -2.000000e+000  0.000000e+000
    endloop
  endfacet
  facet normal  3.826834e-001 -9.238795e-001  0.000000e+000
    outer loop
      vertex -3.673940e-016 -2.000000e+000  0.000000e+000
      vertex  1.414214e+000 -1.414214e+000  6.000000e+001
      vertex -3.673940e-016 -2.000000e+000  6.000000e+001
    endloop
  endfacet
  facet normal -3.826834e-001 -9.238795e-001  -0.000000e+000
    outer loop
      vertex -3.673940e-016 -2.000000e+000  0.000000e+000
      vertex -3.673940e-016 -2.000000e+000  6.000000e+001
      vertex -1.414214e+000 -1.414214e+000  0.000000e+000
    endloop
  endfacet
  facet normal -3.826834e-001 -9.238795e-001  0.000000e+000
    outer loop
      vertex -1.414214e+000 -1.414214e+000  0.000000e+000
      vertex -3.673940e-016 -2.000000e+000  6.000000e+001
      vertex -1.414214e+000 -1.414214e+000  6.000000e+001
    endloop
  endfacet
  facet normal -9.238795e-001 -3.826834e-001  -0.000000e+000
    outer loop
      vertex -1.414214e+000 -1.414214e+000  0.000000e+000
      vertex -1.414214e+000 -1.414214e+000  6.000000e+001
      vertex -2.000000e+000  2.449294e-016  0.000000e+000
    endloop
  endfacet
  facet normal -9.238795e-001 -3.826834e-001  0.000000e+000
    outer loop
      vertex -2.000000e+000  2.449294e-016  0.000000e+000
      vertex -1.414214e+000 -1.414214e+000  6.000000e+001
      vertex -2.000000e+000  2.449294e-016  6.000000e+001
    endloop
  endfacet
  facet normal -9.238795e-001  3.826834e-001  0.000000e+000
    outer loop
      vertex -2.000000e+000  2.449294e-016  0.000000e+000
      vertex -2.000000e+000  2.449294e-016  6.000000e+001
      vertex -1.414214e+000  1.414214e+000  0.000000e+000
    endloop
  endfacet
  facet normal -9.238795e-001  3.826834e-001  0.000000e+000
    outer loop
      vertex -1.414214e+000  1.414214e+000  0.000000e+000
      vertex -2.000000e+000  2.449294e-016  6.000000e+001
      vertex -1.414214e+000  1.414214e+000  6.000000e+001
    endloop
  endfacet
  facet normal -3.826834e-001  9.238795e-001  0.000000e+000
    outer loop
      vertex -1.414214e+000  1.414214e+000  0.000000e+000
      vertex -1.414214e+000  1.414214e+000  6.000000e+001
      vertex  1.224647e-016  2.000000e+000  0.000000e+000
    endloop
  endfacet
  facet normal -3.826834e-001  9.238795e-001  0.000000e+000
    outer loop
      vertex  1.224647e-016  2.000000e+000  0.000000e+000
      vertex -1.414214e+000  1.414214e+000  6.000000e+001
      vertex  1.224647e-016  2.000000e+000  6.000000e+001
    endloop
  endfacet
  facet normal  3.826834e-001  9.238795e-001  0.000000e+000
    outer loop
      vertex  1.224647e-016  2.000000e+000  0.000000e+000
      vertex  1.224647e-016  2.000000e+000  6.000000e+001
      vertex  1.414214e+000  1.414214e+000  0.000000e+000
    endloop
  endfacet
  facet normal  3.826834e-001  9.238795e-001  -0.000000e+000
    outer loop
      vertex  1.414214e+000  1.414214e+000  0.000000e+000
      vertex  1.224647e-016  2.000000e+000  6.000000e+001
      vertex  1.414214e+000  1.414214e+000  6.000000e+001
    endloop
  endfacet
  facet normal  9.238795e-001  3.826834e-001  0.000000e+000
    outer loop
      vertex  1.414214e+000  1.414214e+000  0.000000e+000
      vertex  1.414214e+000  1.414214e+000  6.000000e+001
      vertex  2.000000e+000  0.000000e+000  0.000000e+000
    endloop
  endfacet
  facet normal  9.238795e-001  3.826834e-001  -0.000000e+000
    outer loop
      vertex  2.000000e+000  0.000000e+000  0.000000e+000
      vertex  1.414214e+000  1.414214e+000  6.000000e+001
      vertex  2.000000e+000  0.000000e+000  6.000000e+001
    endloop
  endfacet
  facet normal  -0.000000e+000  0.000000e+000  1.000000e+000
    outer loop
      vertex  1.081560e+000  3.328698e+000  6.400000e+001
      vertex -1.081560e+000  3.328698e+000  6.400000e+001
      vertex  2.831559e+000  2.057248e+000  6.400000e+001
    endloop
  endfacet
  facet normal  0.000000e+000  0.000000e+000  1.000000e+000
    outer loop
      vertex  2.831559e+000  2.057248e+000  6.400000e+001
      vertex -1.081560e+000  3.328698e+000  6.400000e+001
      vertex -2.831559e+000  2.057248e+000  6.400000e+001
    endloop
  endfacet
  facet normal  -0.000000e+000  0.000000e+000  1.000000e+000
    outer loop
      vertex  2.831559e+000  2.057248e+000  6.400000e+001
      vertex -2.831559e+000  2.057248e+000  6.400000e+001
      vertex  3.500000e+000  0.000000e+000  6.400000e+001
    endloop
  endfacet
  facet normal  0.000000e+000  0.000000e+000  9.999999e-001
    outer loop
      vertex  3.500000e+000  0.000000e+000  6.400000e+001
      vertex -2.831559e+000  2.057248e+000  6.400000e+001
      vertex -3.500000e+000  4.286264e-016  6.400000e+001
    endloop
  endfacet
  facet normal  0.000000e+000  0.000000e+000  9.999999e-001
    outer loop
      vertex  3.500000e+000  0.000000e+000  6.400000e+001
      vertex -3.500000e+000  4.286264e-016  6.400000e+001
      vertex  2.831559e+000 -2.057248e+000  6.400000e+001
    endloop
  endfacet
  facet normal  0.000000e+000  0.000000e+000  1.000000e+000
    outer loop
      vertex  2.831559e+000 -2.057248e+000  6.400000e+001
      vertex -3.500000e+000  4.286264e-016  6.400000e+001
      vertex -2.831559e+000 -2.057248e+000  6.400000e+001
    endloop
  endfacet
  facet normal  -0.000000e+000  0.000000e+000  1.000000e+000
    outer loop
      vertex  2.831559e+000 -2.057248e+000  6.400000e+001
      vertex -2.831559e+000 -2.057248e+000  6.400000e+001
      vertex  1.081560e+000 -3.328698e+000  6.400000e+001
    endloop
  endfacet
  facet normal  0.000000e+000  0.000000e+000  1.000000e+000
    outer loop
      vertex  1.081560e+000 -3.328698e+000  6.400000e+001
      vertex -2.831559e+000 -2.057248e+000  6.400000e+001
      vertex -1.081560e+000 -3.328698e+000  6.400000e+001
    endloop
  endfacet
  facet normal  9.510565e-001 -3.090170e-001  0.000000e+000
    outer loop
      vertex  3.500000e+000  0.000000e+000  6.000000e+001
      vertex  3.500000e+000  0.000000e+000  6.400000e+001
      vertex  2.831559e+000 -2.057248e+000  6.000000e+001
    endloop
  endfacet
  facet normal  9.510565e-001 -3.090170e-001  0.000000e+000
    outer loop
      vertex  2.831559e+000 -2.057248e+000  6.000000e+001
      vertex  3.500000e+000  0.000000e+000  6.400000e+001
      vertex  2.831559e+000 -2.057248e+000  6.400000e+001
    endloop
  endfacet
  facet normal  5.877854e-001 -8.090169e-001  0.000000e+000
    outer loop
      vertex  2.831559e+000 -2.057248e+000  6.000000e+001
      vertex  2.831559e+000 -2.057248e+000  6.400000e+001
      vertex  1.081560e+000 -3.328698e+000  6.000000e+001
    endloop
  endfacet
  facet normal  5.877854e-001 -8.090169e-001  0.000000e+000
    outer loop
      vertex  1.081560e+000 -3.328698e+000  6.000000e+001
      vertex  2.831559e+000 -2.057248e+000  6.400000e+001
      vertex  1.081560e+000 -3.328698e+000  6.400000e+001
    endloop
  endfacet
  facet normal  0.000000e+000 -1.000000e+000  -0.000000e+000
    outer loop
      vertex  1.081560e+000 -3.328698e+000  6.000000e+001
      vertex  1.081560e+000 -3.328698e+000  6.400000e+001
      vertex -1.081560e+000 -3.328698e+000  6.000000e+001
    endloop
  endfacet
  facet normal  0.000000e+000 -1.000000e+000  0.000000e+000
    outer loop
      vertex -1.081560e+000 -3.328698e+000  6.000000e+001
      vertex  1.081560e+000 -3.328698e+000  6.400000e+001
      vertex -1.081560e+000 -3.328698e+000  6.400000e+001
    endloop
  endfacet
  facet normal -5.877854e-001 -8.090169e-001  -0.000000e+000
    outer loop
      vertex -1.081560e+000 -3.328698e+000  6.000000e+001
      vertex -1.081560e+000 -3.328698e+000  6.400000e+001
      vertex -2.831559e+000 -2.057248e+000  6.000000e+001
    endloop
  endfacet
  facet normal -5.877854e-001 -8.090169e-001  0.000000e+000
    outer loop
      vertex -2.831559e+000 -2.057248e+000  6.000000e+001
      vertex -1.081560e+000 -3.328698e+000  6.400000e+001
      vertex -2.831559e+000 -2.057248e+000  6.400000e+001
    endloop
  endfacet
  facet normal -9.510565e-001 -3.090170e-001  -0.000000e+000
    outer loop
      vertex -2.831559e+000 -2.057248e+000  6.000000e+001
      vertex -2.831559e+000 -2.057248e+000  6.400000e+001
      vertex -3.500000e+000  4.286264e-016  6.000000e+001
    endloop
  endfacet
  facet normal -9.510565e-001 -3.090170e-001  0.000000e+000
    outer loop
      vertex -3.500000e+000  4.286264e-016  6.000000e+001
      vertex -2.831559e+000 -2.057248e+000  6.400000e+001
      vertex -3.500000e+000  4.286264e-016  6.400000e+001
    endloop
  endfacet
  facet normal -9.510565e-001  3.090170e-001  0.000000e+000
    outer loop
      vertex -3.500000e+000  4.286264e-016  6.000000e+001
      vertex -3.500000e+000  4.286264e-016  6.400000e+001
      vertex -2.831559e+000  2.057248e+000  6.000000e+001
    endloop
  endfacet
  facet normal -9.510565e-001  3.090170e-001  0.000000e+000
    outer loop
      vertex -2.831559e+000  2.057248e+000  6.000000e+001
      vertex -3.500000e+000  4.286264e-016  6.400000e+001
      vertex -2.831559e+000  2.057248e+000  6.400000e+001
    endloop
  endfacet
  facet normal -5.877854e-001  8.090169e-001  0.000000e+000
    outer loop
      vertex -2.831559e+000  2.057248e+000  6.000000e+001
      vertex -2.831559e+000  2.057248e+000  6.400000e+001
      vertex -1.081560e+000  3.328698e+000  6.000000e+001
    endloop
  endfacet
  facet normal -5.877854e-001  8.090169e-001  0.000000e+000
    outer loop
      vertex -1.081560e+000  3.328698e+000  6.000000e+001
      vertex -2.831559e+000  2.057248e+000  6.400000e+001
      vertex -1.081560e+000  3.328698e+000  6.400000e+001
    endloop
  endfacet
  facet normal  0.000000e+000  1.000000e+000  0.000000e+000
    outer loop
      vertex -1.081560e+000  3.328698e+000  6.000000e+001
      vertex -1.081560e+000  3.328698e+000  6.400000e+001
      vertex  1.081560e+000  3.328698e+000  6.000000e+001
    endloop
  endfacet
  facet normal  0.000000e+000  1.000000e+000  -0.000000e+000
    outer loop
      vertex  1.081560e+000  3.328698e+000  6.000000e+001
      vertex -1.081560e+000  3.328698e+000  6.400000e+001
      vertex  1.081560e+000  3.328698e+000  6.400000e+001
    endloop
  endfacet
  facet normal  5.877854e-001  8.090169e-001  0.000000e+000
    outer loop
      vertex  1.081560e+000  3.328698e+000  6.000000e+001
      vertex  1.081560e+000  3.328698e+000  6.400000e+001
      vertex  2.831559e+000  2.057248e+000  6.000000e+001
    endloop
  endfacet
  facet normal  5.877854e-001  8.090169e-001  -0.000000e+000
    outer loop
      vertex  2.831559e+000  2.057248e+000  6.000000e+001
      vertex  1.081560e+000  3.328698e+000  6.400000e+001
      vertex  2.831559e+000  2.057248e+000  6.400000e+001
    endloop
  endfacet
  facet normal  9.510565e-001  3.090170e-001  0.000000e+000
    outer loop
      vertex  2.831559e+000  2.057248e+000  6.000000e+001
      vertex  2.831559e+000  2.057248e+000  6.400000e+001
      vertex  3.500000e+000  0.000000e+000  6.000000e+001
    endloop
  endfacet
  facet normal  9.510565e-001  3.090170e-001  -0.000000e+000
    outer loop
      vertex  3.500000e+000  0.000000e+000  6.000000e+001
      vertex  2.831559e+000  2.057248e+000  6.400000e+001
      vertex  3.500000e+000  0.000000e+000  6.400000e+001
    endloop
  endfacet
  facet normal  0.000000e+000  0.000000e+000 -9.999999e-001
    outer loop
      vertex  1.224647e-016  2.000000e+000  0.000000e+000
      vertex  1.414214e+000  1.414214e+000  0.000000e+000
      vertex -1.414214e+000  1.414214e+000  0.000000e+000
    endloop
  endfacet
  facet normal  0.000000e+000  0.000000e+000 -9.999999e-001
    outer loop
      vertex -3.673940e-016 -2.000000e+000  0.000000e+000
      vertex -1.414214e+000 -1.414214e+000  0.000000e+000
      vertex  1.414214e+000 -1.414214e+000  0.000000e+000
    endloop
  endfacet
  facet normal  0.000000e+000  0.000000e+000 -1.000000e+000
    outer loop
      vertex  1.414214e+000 -1.414214e+000  0.000000e+000
      vertex -1.414214e+000 -1.414214e+000  0.000000e+000
      vertex -2.000000e+000  2.449294e-016  0.000000e+000
    endloop
  endfacet
  facet normal  0.000000e+000  0.000000e+000 -9.999999e-001
    outer loop
      vertex  1.414214e+000 -1.414214e+000  0.000000e+000
      vertex -2.000000e+000  2.449294e-016  0.000000e+000
      vertex  2.000000e+000  0.000000e+000  0.000000e+000
    endloop
  endfacet
  facet normal  0.000000e+000  0.000000e+000 -9.999999e-001
    outer loop
      vertex  2.000000e+000  0.000000e+000  0.000000e+000
      vertex -2.000000e+000  2.449294e-016  0.000000e+000
      vertex -1.414214e+000  1.414214e+000  0.000000e+000
    endloop
  endfacet
  facet normal  0.000000e+000  0.000000e+000 -1.000000e+000
    outer loop
      vertex  2.000000e+000  0.000000e+000  0.000000e+000
      vertex -1.414214e+000  1.414214e+000  0.000000e+000
      vertex  1.414214e+000  1.414214e+000  0.000000e+000
    endloop
  endfacet
endsolid CATIA STL
